<?xml version="1.0" encoding="utf-8"?>
<!-- Generator: Adobe Illustrator 23.0.4, SVG Export Plug-In . SVG Version: 6.00 Build 0)  -->
<svg version="1.1" id="Layer_1" xmlns="http://www.w3.org/2000/svg" xmlns:xlink="http://www.w3.org/1999/xlink" x="0px" y="0px"
	 viewBox="0 0 50 50" style="enable-background:new 0 0 50 50;" xml:space="preserve">
<path d="M45.71,39.41c-2.41-3.53-5.13-7.95-5.42-9.05v-9.04c0-7.14-4.92-13.15-11.54-14.83c-0.06-2.21-1.88-4-4.1-4
	c-2.27,0-4.11,1.84-4.11,4.11c0,0.03,0.01,0.05,0.01,0.08C14.28,8.6,9.7,14.44,9.7,21.32v9.07c-0.24,1.08-2.97,5.5-5.41,9.01
	c-0.36,0.52-0.41,1.21-0.11,1.77c0.3,0.57,0.88,0.92,1.52,0.92h12.42c0.58,3.07,3.29,5.41,6.53,5.41s5.95-2.33,6.53-5.41H44.3
	c0.63,0,1.22-0.35,1.51-0.91C46.11,40.62,46.07,39.94,45.71,39.41z M24.65,4.62c0.92,0,1.7,0.64,1.92,1.49
	C26.06,6.05,25.53,6.03,25,6.03c-0.78,0-1.55,0.06-2.29,0.17C22.9,5.3,23.7,4.62,24.65,4.62z M24.65,44.07
	c-1.34,0-2.49-0.82-2.97-1.98h5.95C27.14,43.25,25.99,44.07,24.65,44.07z M8.93,38.66c2.19-3.32,4.2-6.76,4.2-8.2v-9.14
	c0-6.54,5.32-11.87,11.87-11.87c6.55,0,11.87,5.32,11.87,11.87v9.14c0,1.14,1.42,3.89,4.22,8.2H8.93z"/>
</svg>
