<?xml version="1.0" encoding="utf-8"?>
<!-- Generator: Adobe Illustrator 23.0.4, SVG Export Plug-In . SVG Version: 6.00 Build 0)  -->
<svg version="1.1" id="X" xmlns="http://www.w3.org/2000/svg" xmlns:xlink="http://www.w3.org/1999/xlink" x="0px" y="0px"
	 viewBox="0 0 50 50" style="enable-background:new 0 0 50 50;" xml:space="preserve">
<path d="M28.4,24.9l18-18.3c1-1,1-2.5,0-3.4c-1-1-2.5-1-3.4,0L25,21.5L7,3.2c-1-1-2.5-1-3.4,0c-1,1-1,2.5,0,3.4l18,18.3l-18,18.4
	c-1,1-1,2.5,0,3.4c0.5,0.5,1,0.7,1.7,0.7c0.7,0,1.2-0.2,1.7-1l18-18.2l18,18.2c0.5,0.7,1,1,1.7,1s1.2-0.2,1.7-0.7c1-1,1-2.5,0-3.4
	L28.4,24.9z"/>
</svg>
