<?xml version="1.0" encoding="utf-8"?>
<!-- Generator: Adobe Illustrator 23.0.4, SVG Export Plug-In . SVG Version: 6.00 Build 0)  -->
<svg version="1.1" id="Linkedin_Icon" xmlns="http://www.w3.org/2000/svg" xmlns:xlink="http://www.w3.org/1999/xlink" x="0px"
	 y="0px" viewBox="0 0 50 50" style="enable-background:new 0 0 50 50;" xml:space="preserve">
<style type="text/css">
	.st0{fill-rule:evenodd;clip-rule:evenodd;}
</style>
<g>
	<rect x="3.1" y="17.2" class="st0" width="9.6" height="30.3"/>
	<path class="st0" d="M7.9,13.1L7.9,13.1c-0.2,0-0.2,0-0.2,0c-3,0-5.1-2.5-5.1-5.5s2.5-5.1,5.5-5.1l0,0c0.2,0,0.2,0,0.5,0
		C11.1,2.7,13.4,5,13.4,8C13.2,11,10.7,13.1,7.9,13.1z"/>
	<path class="st0" d="M47.4,47.5h-9.6V31.2c0-4.1-1.4-6.9-4.8-6.9c-2.3,0-4.4,1.6-5.1,3.7c-0.2,0.7-0.5,1.6-0.2,2.5v17H18
		c0,0,0.2-27.6,0-30.3h9.6v4.4c1.6-3.2,5.1-5.1,8.7-5.1c6.4,0,11,4.4,11,13.5V47.5z"/>
</g>
</svg>
