<?xml version="1.0" encoding="utf-8"?>
<!-- Generator: Adobe Illustrator 23.0.4, SVG Export Plug-In . SVG Version: 6.00 Build 0)  -->
<svg version="1.1" id="Layer_1" xmlns="http://www.w3.org/2000/svg" xmlns:xlink="http://www.w3.org/1999/xlink" x="0px" y="0px"
	 viewBox="0 0 50 50" style="enable-background:new 0 0 50 50;" xml:space="preserve">
<path d="M25,14.45c-5.77,0-10.55,4.78-10.55,10.55S19.23,35.55,25,35.55S35.55,30.77,35.55,25S30.77,14.45,25,14.45z M25,32.73
	c-4.22,0-7.73-3.52-7.73-7.73s3.52-7.73,7.73-7.73s7.73,3.52,7.73,7.73S29.22,32.73,25,32.73z"/>
<path d="M43.42,36.81l-2.67-4.08c0.28-0.7,0.7-1.41,0.84-2.11l4.78-0.98c0.7-0.14,1.12-0.7,1.12-1.41v-6.47
	c0-0.7-0.42-1.27-1.12-1.41l-4.78-0.98c-0.28-0.7-0.56-1.41-0.84-2.11l2.67-4.08c0.42-0.56,0.28-1.27-0.14-1.83l-4.5-4.5
	c-0.42-0.42-1.27-0.56-1.83-0.14l-4.08,2.67c-0.7-0.28-1.41-0.7-2.11-0.84l-0.98-4.78c-0.14-0.7-0.7-1.12-1.41-1.12h-6.47
	c-0.7,0-1.27,0.42-1.41,1.12l-1.12,4.64c-0.7,0.28-1.41,0.56-2.11,0.84l-4.08-2.67c-0.56-0.28-1.41-0.28-1.83,0.28l-4.5,4.5
	c-0.56,0.42-0.56,1.27-0.28,1.83l2.67,4.08c-0.28,0.7-0.7,1.41-0.84,2.11l-4.78,0.98c-0.7,0.14-1.12,0.7-1.12,1.41v6.47
	c0,0.7,0.42,1.27,1.12,1.41l4.78,0.98c0.28,0.7,0.56,1.41,0.84,2.11l-2.67,4.08c-0.42,0.56-0.28,1.27,0.14,1.83l4.5,4.5
	c0.42,0.42,1.27,0.56,1.83,0.14l4.08-2.67c0.7,0.28,1.41,0.7,2.11,0.84l0.98,4.78c0.14,0.7,0.7,1.12,1.41,1.12h6.47
	c0.7,0,1.27-0.42,1.41-1.12l0.98-4.78c0.7-0.28,1.41-0.56,2.11-0.84l4.08,2.67c0.56,0.42,1.27,0.28,1.83-0.14l4.5-4.5
	C43.7,38.22,43.7,37.38,43.42,36.81z M37.52,40.33l-3.94-2.53c-0.42-0.28-0.98-0.28-1.41,0c-0.98,0.56-1.97,0.98-3.09,1.27
	c-0.56,0.14-0.84,0.56-0.98,1.12l-0.98,4.5h-4.08l-0.98-4.5c-0.14-0.56-0.42-0.98-0.98-1.12c-1.12-0.28-2.11-0.7-3.09-1.27
	c-0.42-0.28-0.98-0.28-1.41,0l-3.94,2.53l-2.95-2.95l2.53-3.94c0.28-0.42,0.28-0.98,0-1.41c-0.56-0.98-0.98-1.97-1.27-3.09
	c-0.14-0.56-0.56-0.84-1.12-0.98l-4.5-0.84v-4.08l4.5-0.98c0.56-0.14,0.98-0.42,1.13-0.98c0.28-1.12,0.7-2.11,1.27-3.09
	c0.28-0.42,0.28-0.98,0-1.41l-2.53-4.08l2.95-2.95l3.94,2.53c0.42,0.28,0.98,0.28,1.41,0c0.98-0.56,1.97-0.98,3.09-1.27
	c0.56-0.14,0.84-0.56,0.98-1.12l0.84-4.36h4.08l0.98,4.5c0.14,0.56,0.42,0.98,0.98,1.12c1.12,0.28,2.11,0.7,3.09,1.27
	c0.42,0.28,0.98,0.28,1.41,0l3.94-2.53l2.95,2.95l-2.53,3.94c-0.28,0.42-0.28,0.98,0,1.41c0.56,0.98,0.98,1.97,1.27,3.09
	c0.14,0.56,0.56,0.84,1.12,0.98l4.5,0.98v4.08l-4.5,0.98c-0.56,0.14-0.98,0.42-1.12,0.98c-0.28,1.12-0.7,2.11-1.27,3.09
	c-0.28,0.42-0.28,0.98,0,1.41l2.53,3.94L37.52,40.33z"/>
</svg>
