<?xml version="1.0" encoding="utf-8"?>
<!-- Generator: Adobe Illustrator 23.0.4, SVG Export Plug-In . SVG Version: 6.00 Build 0)  -->
<svg version="1.1" id="Layer_1" xmlns="http://www.w3.org/2000/svg" xmlns:xlink="http://www.w3.org/1999/xlink" x="0px" y="0px"
	 viewBox="0 0 50 50" style="enable-background:new 0 0 50 50;" xml:space="preserve">
<path d="M41.7,43.6l-7-12.3c3.6-3,5.9-7.5,5.9-12.6c0-9-7.3-16.3-16.3-16.3S7.9,9.8,7.9,18.8s7.3,16.3,16.3,16.3
	c1.9,0,3.9-0.4,5.7-1.1l7,12.1c0.6,0.8,1.4,1.4,2.3,1.4c0.4,0,1-0.1,1.4-0.4C42,46.5,42.5,44.9,41.7,43.6z M24.2,29.6
	c-5.9,0-10.8-4.8-10.8-10.8S18.2,8,24.2,8S35,12.9,35,18.8S30.1,29.6,24.2,29.6z"/>
</svg>
