<?xml version="1.0" encoding="utf-8"?>
<!-- Generator: Adobe Illustrator 23.0.4, SVG Export Plug-In . SVG Version: 6.00 Build 0)  -->
<svg version="1.1" id="Youtube_Icon" xmlns="http://www.w3.org/2000/svg" xmlns:xlink="http://www.w3.org/1999/xlink" x="0px"
	 y="0px" viewBox="0 0 50 50" style="enable-background:new 0 0 50 50;" xml:space="preserve">
<style type="text/css">
	.st0{fill-rule:evenodd;clip-rule:evenodd;}
</style>
<path class="st0" d="M47.5,26.7v-3.4c0-2.5-0.2-5.1-0.5-7.6c-0.2-1.6-0.9-3.2-1.8-4.6c-1.4-1.4-3-2.1-4.6-2.1
	C34.4,8.6,25,8.6,25,8.6S15.6,8.6,9.4,9C7.6,9.3,5.9,10,4.8,11.1c-0.9,1.4-1.6,3-1.8,4.6c-0.2,2.5-0.5,5.1-0.5,7.6v3.4
	c0,2.5,0.2,5.1,0.5,7.6c0.2,1.6,0.9,3.2,1.8,4.6C6.2,40.3,8,41,9.8,41c3.7,0.2,15.4,0.5,15.4,0.5s9.4,0,15.6-0.5
	c1.8,0,3.4-0.9,4.6-2.1c0.9-1.4,1.6-3,1.8-4.6C47.5,31.8,47.5,26.7,47.5,26.7z M20.6,30.9V18l12.2,6.4L20.6,30.9z"/>
</svg>
